<mxfile host="Electron" agent="Mozilla/5.0 (Windows NT 10.0; Win64; x64) AppleWebKit/537.36 (KHTML, like Gecko) draw.io/24.7.5 Chrome/126.0.6478.183 Electron/31.3.0 Safari/537.36" version="24.7.5">
  <diagram id="C5RBs43oDa-KdzZeNtuy" name="KommunikationVCU">
    <mxGraphModel dx="1134" dy="741" grid="1" gridSize="10" guides="1" tooltips="1" connect="1" arrows="1" fold="1" page="1" pageScale="1" pageWidth="827" pageHeight="1169" math="0" shadow="0">
      <root>
        <mxCell id="WIyWlLk6GJQsqaUBKTNV-0" />
        <mxCell id="WIyWlLk6GJQsqaUBKTNV-1" parent="WIyWlLk6GJQsqaUBKTNV-0" />
        <mxCell id="pnoVm9WjwPJah8JtLmS--3" style="edgeStyle=orthogonalEdgeStyle;rounded=0;orthogonalLoop=1;jettySize=auto;html=1;entryX=0;entryY=0.5;entryDx=0;entryDy=0;exitX=0.5;exitY=1;exitDx=0;exitDy=0;" parent="WIyWlLk6GJQsqaUBKTNV-1" source="pnoVm9WjwPJah8JtLmS--14" target="pnoVm9WjwPJah8JtLmS--1" edge="1">
          <mxGeometry relative="1" as="geometry" />
        </mxCell>
        <mxCell id="pnoVm9WjwPJah8JtLmS--27" value="" style="edgeStyle=orthogonalEdgeStyle;rounded=0;orthogonalLoop=1;jettySize=auto;html=1;entryX=0;entryY=0.5;entryDx=0;entryDy=0;" parent="WIyWlLk6GJQsqaUBKTNV-1" source="WIyWlLk6GJQsqaUBKTNV-3" target="pnoVm9WjwPJah8JtLmS--9" edge="1">
          <mxGeometry relative="1" as="geometry" />
        </mxCell>
        <mxCell id="WIyWlLk6GJQsqaUBKTNV-3" value="Fernbedienung Taste 2 (Remote Drive) gedr端ckt" style="rounded=1;whiteSpace=wrap;html=1;fontSize=12;glass=0;strokeWidth=1;shadow=0;fillColor=#d5e8d4;strokeColor=#82b366;" parent="WIyWlLk6GJQsqaUBKTNV-1" vertex="1">
          <mxGeometry x="327" y="80" width="140" height="40" as="geometry" />
        </mxCell>
        <mxCell id="pnoVm9WjwPJah8JtLmS--26" value="" style="edgeStyle=orthogonalEdgeStyle;rounded=0;orthogonalLoop=1;jettySize=auto;html=1;" parent="WIyWlLk6GJQsqaUBKTNV-1" source="pnoVm9WjwPJah8JtLmS--0" target="pnoVm9WjwPJah8JtLmS--14" edge="1">
          <mxGeometry relative="1" as="geometry" />
        </mxCell>
        <mxCell id="pnoVm9WjwPJah8JtLmS--0" value="Ready2Drive Taster am Kart gedr端ckt" style="rounded=1;whiteSpace=wrap;html=1;fontSize=12;glass=0;strokeWidth=1;shadow=0;" parent="WIyWlLk6GJQsqaUBKTNV-1" vertex="1">
          <mxGeometry x="30" y="160" width="130" height="40" as="geometry" />
        </mxCell>
        <mxCell id="pnoVm9WjwPJah8JtLmS--5" style="edgeStyle=orthogonalEdgeStyle;rounded=0;orthogonalLoop=1;jettySize=auto;html=1;entryX=0.5;entryY=0;entryDx=0;entryDy=0;" parent="WIyWlLk6GJQsqaUBKTNV-1" source="pnoVm9WjwPJah8JtLmS--1" target="pnoVm9WjwPJah8JtLmS--4" edge="1">
          <mxGeometry relative="1" as="geometry">
            <Array as="points">
              <mxPoint x="240" y="440" />
            </Array>
          </mxGeometry>
        </mxCell>
        <mxCell id="pnoVm9WjwPJah8JtLmS--1" value="VCU verarbeitet Signal" style="rounded=1;whiteSpace=wrap;html=1;fontSize=12;glass=0;strokeWidth=1;shadow=0;" parent="WIyWlLk6GJQsqaUBKTNV-1" vertex="1">
          <mxGeometry x="180" y="340" width="120" height="40" as="geometry" />
        </mxCell>
        <mxCell id="pnoVm9WjwPJah8JtLmS--22" style="edgeStyle=orthogonalEdgeStyle;rounded=0;orthogonalLoop=1;jettySize=auto;html=1;entryX=0;entryY=0.5;entryDx=0;entryDy=0;" parent="WIyWlLk6GJQsqaUBKTNV-1" source="pnoVm9WjwPJah8JtLmS--4" target="pnoVm9WjwPJah8JtLmS--29" edge="1">
          <mxGeometry relative="1" as="geometry">
            <mxPoint x="446" y="460" as="targetPoint" />
            <Array as="points">
              <mxPoint x="630" y="460" />
              <mxPoint x="630" y="460" />
            </Array>
          </mxGeometry>
        </mxCell>
        <mxCell id="pnoVm9WjwPJah8JtLmS--4" value="Signal an Option1_PCB" style="rounded=1;whiteSpace=wrap;html=1;fontSize=12;glass=0;strokeWidth=1;shadow=0;" parent="WIyWlLk6GJQsqaUBKTNV-1" vertex="1">
          <mxGeometry x="180" y="440" width="120" height="40" as="geometry" />
        </mxCell>
        <mxCell id="pnoVm9WjwPJah8JtLmS--21" value="" style="edgeStyle=orthogonalEdgeStyle;rounded=0;orthogonalLoop=1;jettySize=auto;html=1;entryX=1;entryY=0.5;entryDx=0;entryDy=0;" parent="WIyWlLk6GJQsqaUBKTNV-1" source="pnoVm9WjwPJah8JtLmS--8" target="pnoVm9WjwPJah8JtLmS--9" edge="1">
          <mxGeometry relative="1" as="geometry" />
        </mxCell>
        <mxCell id="pnoVm9WjwPJah8JtLmS--8" value="Fernbedienung Taste 3 (SOC) gedr端ckt" style="rounded=1;whiteSpace=wrap;html=1;fontSize=12;glass=0;strokeWidth=1;shadow=0;fillColor=#d5e8d4;strokeColor=#82b366;" parent="WIyWlLk6GJQsqaUBKTNV-1" vertex="1">
          <mxGeometry x="517" y="80" width="130" height="40" as="geometry" />
        </mxCell>
        <mxCell id="pnoVm9WjwPJah8JtLmS--11" style="edgeStyle=orthogonalEdgeStyle;rounded=0;orthogonalLoop=1;jettySize=auto;html=1;entryX=1;entryY=0.5;entryDx=0;entryDy=0;exitX=0.5;exitY=1;exitDx=0;exitDy=0;" parent="WIyWlLk6GJQsqaUBKTNV-1" source="pnoVm9WjwPJah8JtLmS--12" target="pnoVm9WjwPJah8JtLmS--1" edge="1">
          <mxGeometry relative="1" as="geometry" />
        </mxCell>
        <mxCell id="pnoVm9WjwPJah8JtLmS--9" value="MCT erkennt Signal" style="rounded=1;whiteSpace=wrap;html=1;fontSize=12;glass=0;strokeWidth=1;shadow=0;fillColor=#d5e8d4;strokeColor=#82b366;" parent="WIyWlLk6GJQsqaUBKTNV-1" vertex="1">
          <mxGeometry x="431" y="160" width="120" height="40" as="geometry" />
        </mxCell>
        <mxCell id="pnoVm9WjwPJah8JtLmS--13" value="" style="edgeStyle=orthogonalEdgeStyle;rounded=0;orthogonalLoop=1;jettySize=auto;html=1;entryX=0.5;entryY=0;entryDx=0;entryDy=0;" parent="WIyWlLk6GJQsqaUBKTNV-1" source="pnoVm9WjwPJah8JtLmS--9" target="pnoVm9WjwPJah8JtLmS--12" edge="1">
          <mxGeometry relative="1" as="geometry">
            <mxPoint x="491" y="200" as="sourcePoint" />
            <mxPoint x="457" y="360" as="targetPoint" />
          </mxGeometry>
        </mxCell>
        <mxCell id="pnoVm9WjwPJah8JtLmS--12" value="Signal an VCU&amp;nbsp;" style="rounded=1;whiteSpace=wrap;html=1;fontSize=12;glass=0;strokeWidth=1;shadow=0;fillColor=#d5e8d4;strokeColor=#82b366;" parent="WIyWlLk6GJQsqaUBKTNV-1" vertex="1">
          <mxGeometry x="431" y="240" width="120" height="40" as="geometry" />
        </mxCell>
        <mxCell id="pnoVm9WjwPJah8JtLmS--14" value="Signal an VCU" style="rounded=1;whiteSpace=wrap;html=1;fontSize=12;glass=0;strokeWidth=1;shadow=0;" parent="WIyWlLk6GJQsqaUBKTNV-1" vertex="1">
          <mxGeometry x="35" y="240" width="120" height="40" as="geometry" />
        </mxCell>
        <mxCell id="pnoVm9WjwPJah8JtLmS--33" value="" style="edgeStyle=orthogonalEdgeStyle;rounded=0;orthogonalLoop=1;jettySize=auto;html=1;" parent="WIyWlLk6GJQsqaUBKTNV-1" source="pnoVm9WjwPJah8JtLmS--23" target="pnoVm9WjwPJah8JtLmS--32" edge="1">
          <mxGeometry relative="1" as="geometry" />
        </mxCell>
        <mxCell id="pnoVm9WjwPJah8JtLmS--23" value="MCT-Ausgang schaltet Transistor als LED-Treiber" style="rounded=1;whiteSpace=wrap;html=1;fontSize=12;glass=0;strokeWidth=1;shadow=0;fillColor=#d5e8d4;strokeColor=#82b366;" parent="WIyWlLk6GJQsqaUBKTNV-1" vertex="1">
          <mxGeometry x="677" y="570" width="150" height="40" as="geometry" />
        </mxCell>
        <mxCell id="pnoVm9WjwPJah8JtLmS--30" value="" style="edgeStyle=orthogonalEdgeStyle;rounded=0;orthogonalLoop=1;jettySize=auto;html=1;" parent="WIyWlLk6GJQsqaUBKTNV-1" source="pnoVm9WjwPJah8JtLmS--28" target="pnoVm9WjwPJah8JtLmS--29" edge="1">
          <mxGeometry relative="1" as="geometry" />
        </mxCell>
        <mxCell id="pnoVm9WjwPJah8JtLmS--28" value="Fernbedienung Taste 4 (Identification) gedr端ckt" style="rounded=1;whiteSpace=wrap;html=1;fontSize=12;glass=0;strokeWidth=1;shadow=0;fillColor=#d5e8d4;strokeColor=#82b366;" parent="WIyWlLk6GJQsqaUBKTNV-1" vertex="1">
          <mxGeometry x="687" y="80" width="130" height="40" as="geometry" />
        </mxCell>
        <mxCell id="pnoVm9WjwPJah8JtLmS--31" value="" style="edgeStyle=orthogonalEdgeStyle;rounded=0;orthogonalLoop=1;jettySize=auto;html=1;" parent="WIyWlLk6GJQsqaUBKTNV-1" source="pnoVm9WjwPJah8JtLmS--29" target="pnoVm9WjwPJah8JtLmS--23" edge="1">
          <mxGeometry relative="1" as="geometry" />
        </mxCell>
        <mxCell id="pnoVm9WjwPJah8JtLmS--29" value="MCT erkennt Signal" style="rounded=1;whiteSpace=wrap;html=1;fontSize=12;glass=0;strokeWidth=1;shadow=0;fillColor=#d5e8d4;strokeColor=#82b366;" parent="WIyWlLk6GJQsqaUBKTNV-1" vertex="1">
          <mxGeometry x="692" y="440" width="120" height="40" as="geometry" />
        </mxCell>
        <mxCell id="pnoVm9WjwPJah8JtLmS--40" value="" style="edgeStyle=orthogonalEdgeStyle;rounded=0;orthogonalLoop=1;jettySize=auto;html=1;" parent="WIyWlLk6GJQsqaUBKTNV-1" source="pnoVm9WjwPJah8JtLmS--32" target="pnoVm9WjwPJah8JtLmS--39" edge="1">
          <mxGeometry relative="1" as="geometry" />
        </mxCell>
        <mxCell id="pnoVm9WjwPJah8JtLmS--32" value="LED leuchtet / blinkt" style="rounded=1;whiteSpace=wrap;html=1;fontSize=12;glass=0;strokeWidth=1;shadow=0;fillColor=#d5e8d4;strokeColor=#82b366;perimeterSpacing=0;" parent="WIyWlLk6GJQsqaUBKTNV-1" vertex="1">
          <mxGeometry x="677" y="650" width="150" height="40" as="geometry" />
        </mxCell>
        <mxCell id="pnoVm9WjwPJah8JtLmS--35" style="edgeStyle=orthogonalEdgeStyle;rounded=0;orthogonalLoop=1;jettySize=auto;html=1;entryX=0.5;entryY=0;entryDx=0;entryDy=0;" parent="WIyWlLk6GJQsqaUBKTNV-1" source="pnoVm9WjwPJah8JtLmS--34" target="WIyWlLk6GJQsqaUBKTNV-3" edge="1">
          <mxGeometry relative="1" as="geometry" />
        </mxCell>
        <mxCell id="pnoVm9WjwPJah8JtLmS--36" style="edgeStyle=orthogonalEdgeStyle;rounded=0;orthogonalLoop=1;jettySize=auto;html=1;entryX=0.5;entryY=0;entryDx=0;entryDy=0;" parent="WIyWlLk6GJQsqaUBKTNV-1" source="pnoVm9WjwPJah8JtLmS--34" target="pnoVm9WjwPJah8JtLmS--8" edge="1">
          <mxGeometry relative="1" as="geometry" />
        </mxCell>
        <mxCell id="pnoVm9WjwPJah8JtLmS--37" style="edgeStyle=orthogonalEdgeStyle;rounded=0;orthogonalLoop=1;jettySize=auto;html=1;entryX=0.5;entryY=0;entryDx=0;entryDy=0;" parent="WIyWlLk6GJQsqaUBKTNV-1" source="pnoVm9WjwPJah8JtLmS--34" target="pnoVm9WjwPJah8JtLmS--28" edge="1">
          <mxGeometry relative="1" as="geometry" />
        </mxCell>
        <mxCell id="pnoVm9WjwPJah8JtLmS--38" style="edgeStyle=orthogonalEdgeStyle;rounded=0;orthogonalLoop=1;jettySize=auto;html=1;entryX=0.5;entryY=0;entryDx=0;entryDy=0;" parent="WIyWlLk6GJQsqaUBKTNV-1" source="pnoVm9WjwPJah8JtLmS--34" target="pnoVm9WjwPJah8JtLmS--0" edge="1">
          <mxGeometry relative="1" as="geometry" />
        </mxCell>
        <mxCell id="pnoVm9WjwPJah8JtLmS--42" value="" style="edgeStyle=orthogonalEdgeStyle;rounded=0;orthogonalLoop=1;jettySize=auto;html=1;" parent="WIyWlLk6GJQsqaUBKTNV-1" source="pnoVm9WjwPJah8JtLmS--34" target="pnoVm9WjwPJah8JtLmS--41" edge="1">
          <mxGeometry relative="1" as="geometry" />
        </mxCell>
        <mxCell id="pnoVm9WjwPJah8JtLmS--49" style="edgeStyle=orthogonalEdgeStyle;rounded=0;orthogonalLoop=1;jettySize=auto;html=1;entryX=0.5;entryY=0;entryDx=0;entryDy=0;" parent="WIyWlLk6GJQsqaUBKTNV-1" source="pnoVm9WjwPJah8JtLmS--34" target="pnoVm9WjwPJah8JtLmS--48" edge="1">
          <mxGeometry relative="1" as="geometry" />
        </mxCell>
        <mxCell id="pnoVm9WjwPJah8JtLmS--34" value="" style="ellipse;whiteSpace=wrap;html=1;aspect=fixed;fillColor=#000000;" parent="WIyWlLk6GJQsqaUBKTNV-1" vertex="1">
          <mxGeometry x="75" width="40" height="40" as="geometry" />
        </mxCell>
        <mxCell id="pnoVm9WjwPJah8JtLmS--39" value="" style="ellipse;whiteSpace=wrap;html=1;aspect=fixed;fillColor=#000000;" parent="WIyWlLk6GJQsqaUBKTNV-1" vertex="1">
          <mxGeometry x="732" y="730" width="40" height="40" as="geometry" />
        </mxCell>
        <mxCell id="pnoVm9WjwPJah8JtLmS--44" value="" style="edgeStyle=orthogonalEdgeStyle;rounded=0;orthogonalLoop=1;jettySize=auto;html=1;" parent="WIyWlLk6GJQsqaUBKTNV-1" source="pnoVm9WjwPJah8JtLmS--41" target="pnoVm9WjwPJah8JtLmS--43" edge="1">
          <mxGeometry relative="1" as="geometry" />
        </mxCell>
        <mxCell id="bHlZaH25Vd7NcobKYHf5-1" value="" style="edgeStyle=orthogonalEdgeStyle;rounded=0;orthogonalLoop=1;jettySize=auto;html=1;" edge="1" parent="WIyWlLk6GJQsqaUBKTNV-1" source="pnoVm9WjwPJah8JtLmS--41" target="bHlZaH25Vd7NcobKYHf5-0">
          <mxGeometry relative="1" as="geometry" />
        </mxCell>
        <mxCell id="pnoVm9WjwPJah8JtLmS--41" value="Fernbedienung Taste 1 (Notaus) gedr端ckt" style="rounded=1;whiteSpace=wrap;html=1;fontSize=12;glass=0;strokeWidth=1;shadow=0;fillColor=#d5e8d4;strokeColor=#82b366;" parent="WIyWlLk6GJQsqaUBKTNV-1" vertex="1">
          <mxGeometry x="880" y="80" width="140" height="40" as="geometry" />
        </mxCell>
        <mxCell id="pnoVm9WjwPJah8JtLmS--46" value="" style="edgeStyle=orthogonalEdgeStyle;rounded=0;orthogonalLoop=1;jettySize=auto;html=1;" parent="WIyWlLk6GJQsqaUBKTNV-1" source="pnoVm9WjwPJah8JtLmS--43" target="pnoVm9WjwPJah8JtLmS--45" edge="1">
          <mxGeometry relative="1" as="geometry" />
        </mxCell>
        <mxCell id="pnoVm9WjwPJah8JtLmS--43" value="Digitaler Ausgang schaltet Transistor" style="rounded=1;whiteSpace=wrap;html=1;fontSize=12;glass=0;strokeWidth=1;shadow=0;fillColor=#d5e8d4;strokeColor=#82b366;" parent="WIyWlLk6GJQsqaUBKTNV-1" vertex="1">
          <mxGeometry x="890" y="160" width="120" height="40" as="geometry" />
        </mxCell>
        <mxCell id="pnoVm9WjwPJah8JtLmS--47" style="edgeStyle=orthogonalEdgeStyle;rounded=0;orthogonalLoop=1;jettySize=auto;html=1;entryX=1;entryY=0.5;entryDx=0;entryDy=0;exitX=0.5;exitY=1;exitDx=0;exitDy=0;" parent="WIyWlLk6GJQsqaUBKTNV-1" source="pnoVm9WjwPJah8JtLmS--45" target="pnoVm9WjwPJah8JtLmS--39" edge="1">
          <mxGeometry relative="1" as="geometry" />
        </mxCell>
        <mxCell id="pnoVm9WjwPJah8JtLmS--45" value="12V Signal an VCU" style="rounded=1;whiteSpace=wrap;html=1;fontSize=12;glass=0;strokeWidth=1;shadow=0;fillColor=#d5e8d4;strokeColor=#82b366;" parent="WIyWlLk6GJQsqaUBKTNV-1" vertex="1">
          <mxGeometry x="890" y="240" width="120" height="40" as="geometry" />
        </mxCell>
        <mxCell id="pnoVm9WjwPJah8JtLmS--51" value="" style="edgeStyle=orthogonalEdgeStyle;rounded=0;orthogonalLoop=1;jettySize=auto;html=1;" parent="WIyWlLk6GJQsqaUBKTNV-1" source="pnoVm9WjwPJah8JtLmS--48" target="pnoVm9WjwPJah8JtLmS--50" edge="1">
          <mxGeometry relative="1" as="geometry" />
        </mxCell>
        <mxCell id="pnoVm9WjwPJah8JtLmS--48" value="Karte von RFID-Reader erkannt" style="rounded=1;whiteSpace=wrap;html=1;fontSize=12;glass=0;strokeWidth=1;shadow=0;" parent="WIyWlLk6GJQsqaUBKTNV-1" vertex="1">
          <mxGeometry x="170" y="80" width="140" height="40" as="geometry" />
        </mxCell>
        <mxCell id="pnoVm9WjwPJah8JtLmS--52" style="edgeStyle=orthogonalEdgeStyle;rounded=0;orthogonalLoop=1;jettySize=auto;html=1;entryX=0.5;entryY=0;entryDx=0;entryDy=0;" parent="WIyWlLk6GJQsqaUBKTNV-1" source="pnoVm9WjwPJah8JtLmS--50" target="pnoVm9WjwPJah8JtLmS--1" edge="1">
          <mxGeometry relative="1" as="geometry">
            <mxPoint x="240" y="300" as="targetPoint" />
          </mxGeometry>
        </mxCell>
        <mxCell id="pnoVm9WjwPJah8JtLmS--50" value="RFID-Reader sendet CAN-MSG" style="rounded=1;whiteSpace=wrap;html=1;fontSize=12;glass=0;strokeWidth=1;shadow=0;" parent="WIyWlLk6GJQsqaUBKTNV-1" vertex="1">
          <mxGeometry x="180" y="160" width="120" height="40" as="geometry" />
        </mxCell>
        <mxCell id="bHlZaH25Vd7NcobKYHf5-0" value="MCT erkennt Signal" style="rounded=1;whiteSpace=wrap;html=1;fontSize=12;glass=0;strokeWidth=1;shadow=0;fillColor=#d5e8d4;strokeColor=#82b366;" vertex="1" parent="WIyWlLk6GJQsqaUBKTNV-1">
          <mxGeometry x="1080" y="80" width="120" height="40" as="geometry" />
        </mxCell>
      </root>
    </mxGraphModel>
  </diagram>
</mxfile>
